<svg fill="none" height="112" viewBox="0 0 112 112" width="112" xmlns="http://www.w3.org/2000/svg" xmlns:xlink="http://www.w3.org/1999/xlink"><filter id="a" color-interpolation-filters="sRGB" filterUnits="userSpaceOnUse" height="90.9077" width="72.6147" x="29.5483" y="15.3625"><feFlood flood-opacity="0" result="BackgroundImageFix"/><feColorMatrix in="SourceAlpha" result="hardAlpha" type="matrix" values="0 0 0 0 0 0 0 0 0 0 0 0 0 0 0 0 0 0 127 0"/><feOffset dx="2" dy="2"/><feComposite in2="hardAlpha" operator="out"/><feColorMatrix type="matrix" values="0 0 0 0 0 0 0 0 0 0 0 0 0 0 0 0 0 0 1 0"/><feBlend in2="BackgroundImageFix" mode="normal" result="effect1_dropShadow_748_23941"/><feBlend in="SourceGraphic" in2="effect1_dropShadow_748_23941" mode="normal" result="shape"/></filter><path d="m10.9787 85.998-8.9787-51.9104h15.2515l2.2462 3.2958h17.7338v40.2573z" fill="#00ac6b" stroke="#000" stroke-width=".8"/><path d="m13.9563 41.9587-2.9641 44.0395h30.7682l2.9641-44.0395z" fill="#00ac6b" stroke="#000" stroke-width=".8"/><path d="m29.5487 15.7625c-4.1414 0-7.4979 3.3344-7.4979 7.4469v18.7354h24.1514v-18.7354c0-4.1132 3.3573-7.4469 7.4979-7.4469z" fill="#01090f" stroke="#000" stroke-width=".8"/><g filter="url(#a)"><path d="m92.9004 96.607v-73.5806c0-4.0124-3.252-7.2639-7.2633-7.2639h-56.0888c4.0114 0 7.2634 3.2523 7.2634 7.2639v73.5799c0 4.0117 3.2521 7.2637 7.2634 7.2637h56.0879c-4.0112 0-7.2633-3.252-7.2633-7.2637z" fill="#fff"/><path d="m92.9004 96.607v-73.5806c0-4.0124-3.252-7.2639-7.2633-7.2639h-56.0888c4.0114 0 7.2634 3.2523 7.2634 7.2639v73.5799c0 4.0117 3.2521 7.2637 7.2634 7.2637h56.0879c-4.0112 0-7.2633-3.252-7.2633-7.2637z" stroke="#000" stroke-width=".8"/></g><path d="m65.8416 50h-19.6832c-.0875 0-.1584.1684-.1584.3762v1.2476c0 .2078.0709.3762.1584.3762h19.6832c.0875 0 .1584-.1684.1584-.3762v-1.2476c0-.2078-.0709-.3762-.1584-.3762z" fill="#9bcdfb"/><path d="m68.7378 56h-22.4756c-.1448 0-.2622.1684-.2622.3762v1.2476c0 .2078.1174.3762.2622.3762h22.4756c.1448 0 .2622-.1684.2622-.3762v-1.2476c0-.2078-.1174-.3762-.2622-.3762z" fill="#9bcdfb"/><path d="m62.8654 62h-16.7308c-.0743 0-.1346.1684-.1346.3762v1.2476c0 .2078.0603.3762.1346.3762h16.7308c.0743 0 .1346-.1684.1346-.3762v-1.2476c0-.2078-.0603-.3762-.1346-.3762z" fill="#9bcdfb"/><path d="m69.7264 68h-23.4528c-.1511 0-.2736.1684-.2736.3762v1.2476c0 .2078.1225.3762.2736.3762h23.4528c.1511 0 .2736-.1684.2736-.3762v-1.2476c0-.2078-.1225-.3762-.2736-.3762z" fill="#9bcdfb"/><path d="m70.802 74h-24.604c-.1094 0-.198.1684-.198.3762v1.2476c0 .2078.0886.3762.198.3762h24.604c.1094 0 .198-.1684.198-.3762v-1.2476c0-.2078-.0886-.3762-.198-.3762z" fill="#9bcdfb"/><path d="m52.369 88.1697v9.8419c0 2.0264-.627 3.9054-1.6976 5.4544h49.9926c3.373 0 7.793-3.429 7.793-5.4544v-9.8419z" fill="#000" stroke="#000" stroke-width=".8"/><path d="m53.6798 84.4214v9.8419c0 5.3062-4.3015 9.6077-9.6066 9.6077h56.0878c5.306 0 9.607-4.3022 9.607-9.6077v-9.8419z" fill="#fff" stroke="#000" stroke-width=".8"/><path d="m9.58887 46.4565 1.49923 37.293 2.811-37.293z" fill="#000"/><g stroke-width=".8"><path d="m68.0649 33.5845 11.4747 70.3115" stroke="#2d0d28" stroke-linecap="round"/><path d="m80.9067 33.6292 12.0067 70.2228" stroke="#2d0d28" stroke-linecap="round"/><path d="m74.6782 73.6077h13.0451" stroke="#2d0d28"/><path d="m75.8462 79.8384h13.045" stroke="#2d0d28"/><path d="m76.6226 86.0686h13.045" stroke="#2d0d28"/><path d="m77.6646 92.1694h13.045" stroke="#2d0d28"/><path d="m70.3931 48.6863h13.045" stroke="#2d0d28"/><path d="m69.4873 42.4556h13.045" stroke="#2d0d28"/><path d="m71.5605 54.9163h13.0451" stroke="#2d0d28"/><path d="m72.4727 61.1462h13.045" stroke="#2d0d28"/><path d="m73.6396 67.3777h13.0451" stroke="#2d0d28"/><path d="m50.0354 40.6747-1.8945-3.3838-4.0042.8725 7.5325-17.6959 5.8979 2.5113z" fill="#ffc664" stroke="#000" stroke-linejoin="round"/><path d="m62.7828 37.4092-4.2424-.66-1.2739 3.9254-9.7973-16.5492 5.5163-3.2663z" fill="#ffc664" stroke="#000" stroke-linejoin="round"/><path d="m60.5891 29.4061c3.9405-3.9407 3.9405-10.33 0-14.2707-3.9405-3.9408-10.3292-3.9408-14.2697 0-3.9404 3.9407-3.9404 10.33 0 14.2707 3.9405 3.9408 10.3293 3.9408 14.2697 0z" fill="#fff" stroke="#000"/><path d="m59.1282 27.9441c3.1331-3.1333 3.1331-8.2134 0-11.3467s-8.2128-3.1333-11.3459 0-3.1331 8.2134 0 11.3467 8.2128 3.1333 11.3459 0z" fill="#ffc664" stroke="#000"/></g></svg>