<svg fill="none" height="112" viewBox="0 0 112 112" width="112" xmlns="http://www.w3.org/2000/svg"><g stroke-linecap="round" stroke-linejoin="round" stroke-width=".8"><path d="m66.5035 14.1738h-48.6123c-5.614 0-10.16513 4.5526-10.16513 10.1685v63.66c0 5.6159 4.55113 10.1685 10.16513 10.1685h48.6123c5.614 0 10.1651-4.5526 10.1651-10.1685v-63.66c0-5.6159-4.5511-10.1685-10.1651-10.1685z" fill="#000" stroke="#000"/><path d="m20.1343 43.825h44.2656" stroke="#000"/><path d="m20.1343 30.019h44.2656" stroke="#000"/><path d="m20.1343 56.7537h44.2656" stroke="#000"/><path d="m20.1343 69.6831h44.2656" stroke="#000"/><path d="m20.1343 82.1738h44.2656" stroke="#000"/><g fill="#000"><path d="m90.6472 37.2286-33.5281 33.528 3.2768 3.2767 33.528-33.528z" stroke="#000900"/><path d="m93.9504 40.4674-33.528 33.528 3.5219 3.5219 33.528-33.528z" stroke="#000900"/><path d="m97.4461 44.0249-33.5267 33.5299 3.539 3.5421 33.5296-33.5299h-.003z" stroke="#000900"/><path d="m105.659 42.8943 1.737-1.7374c5.582-5.5813-4.759-15.9187-10.3371-10.3405l-1.7405 1.7406 10.3376 10.3373z" stroke="#000"/><path d="m53.874 84.3335 5.6488-1.3455-4.3-4.2968z" stroke="#000900"/><path d="m63.9158 77.5545-3.5229-3.5196-3.2756-3.2756-1.8946 7.932 4.3 4.2968 7.9352-1.8882z" stroke="#000"/><path d="m92.9917 34.8787-2.3442 2.3475v.0032l.0032-.0032 3.2755 3.2756 3.5197 3.5228 3.5421 3.5422 2.344-2.3475z" stroke="#000900"/><path d="m105.657 42.8943-10.3371-10.3374-.0032-.0032-2.325 2.325 10.3403 10.3406z" stroke="#000900"/></g><path d="m61.1914 14.1738h-48.6122c-5.61405 0-10.16514 4.5526-10.16514 10.1685v63.66c0 5.6159 4.55109 10.1685 10.16514 10.1685h48.6122c5.6141 0 10.1652-4.5526 10.1652-10.1685v-63.66c0-5.6159-4.5511-10.1685-10.1652-10.1685z" fill="#fff" stroke="#000"/><path d="m14.8223 43.5h44.2656" stroke="#000"/><path d="m14.8223 30.5h44.2656" stroke="#000"/><path d="m14.8223 56.5h44.2656" stroke="#000"/><path d="m14.8223 69.5h44.2656" stroke="#000"/><path d="m14.8223 81.5h44.2656" stroke="#000"/><path d="m85.3376 37.2286-33.528 33.528 3.2767 3.2767 33.528-33.528z" fill="#ffc664" stroke="#000900"/><path d="m88.6408 40.4674-33.528 33.528 3.522 3.5219 33.528-33.5279z" fill="#f5e644" stroke="#000900"/><path d="m92.135 44.0251-33.5266 33.5299 3.5389 3.5421 33.5298-33.5298h-.0032z" fill="#ffc664" stroke="#000900"/><path d="m100.348 42.8943 1.738-1.7374c5.581-5.5813-4.7595-15.9187-10.3376-10.3405l-1.7406 1.7406 10.3372 10.3373z" fill="#ff9fbf" stroke="#000"/><path d="m48.5645 84.3338 5.6487-1.3456-4.3-4.2968z" fill="#000900" stroke="#000900"/><path d="m58.6062 77.5548-3.5228-3.5197-3.2756-3.2756-1.8947 7.9321 4.3 4.2968 7.9352-1.8883z" fill="#fff" stroke="#000"/><path d="m87.6817 34.8792-2.3443 2.3475v.0032l.0032-.0032 3.2756 3.2755 3.5197 3.5229 3.5421 3.5421 2.3443-2.3475z" fill="#cfd8dc" stroke="#000900"/><path d="m100.346 42.8945-10.3371-10.3373-.0032-.0032-2.325 2.325 10.3405 10.3406z" fill="#cfd8dc" stroke="#000900"/></g></svg>